<?xml version="1.0" encoding="UTF-8"?>
<svg width="227px" height="122px" viewBox="0 0 227 122" version="1.1" xmlns="http://www.w3.org/2000/svg" xmlns:xlink="http://www.w3.org/1999/xlink">
    <!-- Generator: sketchtool 52.5 (67469) - http://www.bohemiancoding.com/sketch -->
    <title>88A4EBC9-7D99-429C-AF06-77122E43E4B1</title>
    <desc>Created with sketchtool.</desc>
    <defs>
        <path d="M22.5128114,9.97898379 C22.4909357,9.83511314 22.4571342,9.69169022 22.4110821,9.55003021 C22.0950929,8.57826377 21.2639836,7.8780862 20.2521884,7.73122183 L15.3329084,7.0169076 L13.1329214,2.56241425 C12.7696558,1.82676301 12.1028185,1.31203872 11.3248092,1.13775942 L11.4463246,0.891714741 C11.7179339,0.341677118 12.2679795,0 12.8817909,0 C13.4956023,0 14.0456478,0.341677118 14.3172571,0.891714741 L16.6925228,5.70110917 C16.7391738,5.7955773 16.8292994,5.86100383 16.933553,5.87611683 L22.2448445,6.64735391 C22.8522556,6.73552101 23.347401,7.15266841 23.5370866,7.73601149 C23.7267247,8.31935458 23.5715533,8.94770505 23.1320194,9.37584373 L22.5128114,9.97898379 Z M19.3964444,14.5667094 L20.1039231,18.6886774 C20.2077026,19.2931502 19.9636856,19.8926486 19.467118,20.2532288 C19.3184019,20.361303 19.1562416,20.4411627 18.9874535,20.4923491 L18.1746603,15.7567892 L19.3964444,14.5667094 Z M2.28810535,7.5757706 C2.51051658,7.07702114 2.96857217,6.72721835 3.51878415,6.64735384 L6.53561901,6.20930719 L6.13674638,7.0169451 L2.28810535,7.5757706 Z M20.9850545,11.5212984 L17.141752,15.2648706 C17.0663234,15.3383985 17.0319041,15.4442843 17.0496827,15.5480855 L17.9569592,20.8341319 C18.0607387,21.4386048 17.8167217,22.0381032 17.3201541,22.3986834 C17.0396318,22.6025432 16.7112733,22.7060128 16.3808287,22.7060128 C16.1263817,22.7060601 15.870702,22.644708 15.6344128,22.5205823 L10.8838812,20.0248517 C10.7905318,19.9758174 10.6791668,19.9758174 10.5858648,20.0248517 L5.83538067,22.5205823 C5.29216206,22.8059292 4.64606474,22.7593584 4.14949713,22.3987308 C3.65292952,22.0381979 3.40895998,21.4387469 3.51269207,20.8341793 L4.4199686,15.5481329 C4.43779459,15.4443316 4.40332785,15.3384458 4.32789926,15.264918 L0.484644216,11.5212984 C0.0450628829,11.0931597 -0.110155979,10.4648092 0.0795770341,9.88146613 C0.269310047,9.29812304 0.764407961,8.88097563 1.3718191,8.79280853 L6.68301598,8.02161882 C6.78731699,8.00645844 6.87739513,7.94103192 6.92409354,7.84661116 L9.29935932,3.03716929 C9.57096862,2.48713166 10.1210142,2.14545454 10.7348256,2.14545454 C11.3486371,2.14545454 11.8986826,2.48713166 12.1702919,3.03716929 L14.5455577,7.84656378 C14.5922087,7.94103192 14.6823343,8.00645844 14.7865879,8.02157145 L20.0978796,8.79280853 C20.7052907,8.88097563 21.200436,9.29812304 21.3901216,9.88146613 C21.5797598,10.4648092 21.4245884,11.0931597 20.9850545,11.5212984 Z M15.9346367,15.7645482 C15.8455542,15.2455419 16.0176034,14.716255 16.3949834,14.3487105 L20.344996,10.7358502 C20.6168392,10.462365 20.344996,9.77996138 20.0063222,9.7313314 C19.7805397,9.69891141 17.9667667,9.45239306 14.565003,8.99177635 C14.0435454,8.91606918 13.592965,8.58898391 13.3597575,8.11669059 C12.1065327,5.26913555 11.4038295,3.68745637 11.251648,3.37165306 C11.0233757,2.89794809 10.4156761,2.89794809 10.2037184,3.37165306 L7.90618803,8.11669059 C7.67293304,8.58898391 7.22230527,8.91606918 6.70084764,8.99177635 L1.23927383,9.7313314 C0.86774914,9.82680808 0.807667142,10.6233657 1.14535811,10.9724081 L4.943759,14.4687239 C5.32118642,14.8363159 5.53570886,15.2455419 5.44662631,15.7645482 L4.51185003,20.986865 C4.36148124,21.5249965 4.93052392,21.8300402 5.12570852,21.7262638 L10.1010482,19.1380734 C10.3342084,19.0156533 10.4790514,18.9543011 10.7349207,18.9543011 C10.9907901,18.9543011 11.1365078,19.0156059 11.3697153,19.1380734 L16.2001244,21.7019598 C16.5932455,21.8985916 17.129266,21.5759353 17.0111986,21.2699095 L15.9346367,15.7645482 Z" id="path-1"></path>
        <path d="M2.90511415,5.96459372 C2.9151059,5.66430224 3.0018635,5.36269911 3.17237231,5.09001995 C3.68902116,4.26386879 4.78148215,4.01183174 5.60820179,4.52806005 L13.0061655,9.14756851 C13.2452572,9.29686446 13.4508809,9.16803418 13.5070188,9.12497781 C13.5655764,9.08133316 13.74429,8.92217654 13.6557267,8.61379684 L13.0406894,5.61563333 C12.8463264,5.09644046 12.9031528,4.52891111 13.1968175,4.05927993 C13.7134312,3.23310682 14.8058922,2.98106977 15.632647,3.49732003 C15.8754981,3.64896347 16.0727165,3.85022308 16.2323851,4.1248925 L19.0909377,9.89871935 C20.209761,12.1178653 20.1400167,14.622818 18.9040165,16.59944 L17.5546648,18.7573349 C15.8760379,21.4418094 12.3246263,22.2611406 9.63826179,20.5836947 L1.76808759,15.669324 C0.941367955,15.1530957 0.689153463,14.0614033 1.20574523,13.2352653 C1.37625404,12.9625862 1.60949196,12.7524497 1.87520208,12.6118364 L0.924538911,12.018214 C0.097841227,11.5019506 -0.154373265,10.4102582 0.3622185,9.58412025 C0.532727312,9.31144109 0.765965229,9.10130462 1.03167409,8.96069051 L0.830576006,8.83511889 C0.00384318735,8.31883353 -0.248371304,7.22714114 0.26822046,6.40100315 C0.784834179,5.57483004 1.87729517,5.32279299 2.70404994,5.83904325 L2.90511415,5.96459372 Z M4.20310684,6.77509928 L10.5742236,10.7534143 C10.7810967,10.8825921 10.8440845,11.15523 10.7148158,11.3619576 C10.5855471,11.5686852 10.3127173,11.6316286 10.1058442,11.5024508 L2.23567039,6.58807993 C1.82192411,6.32972443 1.27583863,6.4563705 1.01778426,6.86905331 C0.759707943,7.28177122 0.885209154,7.82772721 1.29895543,8.08608271 L9.16912921,13.0004536 C9.37600235,13.1296314 9.43899007,13.4022692 9.30972138,13.6089968 C9.1804527,13.8157245 8.90762291,13.8786679 8.70074977,13.7494901 L2.32963329,9.77117523 C1.91588701,9.51281973 1.36980153,9.6394658 1.11174716,10.0521486 C0.853692797,10.4648314 0.979172054,11.0108225 1.39291833,11.269178 L7.76399968,15.2474709 C7.97087282,15.3766487 8.03386053,15.6492866 7.90459185,15.8560142 C7.77532317,16.0627418 7.50249338,16.1256852 7.29562024,15.9965074 L3.17319511,13.4223424 C2.75944883,13.1639869 2.21336335,13.290633 1.95530898,13.7033158 C1.69725461,14.1159986 1.82269874,14.6619677 2.23644501,14.9203232 L10.1066188,19.8346942 C12.3792369,21.2537846 15.3845277,20.5610775 16.8050781,18.2893208 L18.1544298,16.1314258 C19.2255728,14.4184446 19.2808333,12.2366616 18.3010558,10.2918052 L15.4563041,4.54426823 C15.3832914,4.42266561 15.2856791,4.32212128 15.1642535,4.24629956 C14.5151399,3.84097366 13.567571,4.47303165 13.887424,5.37155391 L14.511941,8.3995584 C14.6684676,8.93261808 14.4832,9.49390591 14.0415747,9.82842937 C13.5995014,10.1637472 13.008529,10.190454 12.5378293,9.89653512 L5.13986599,5.27702646 C4.72611972,5.01867096 4.18003423,5.14531703 3.92197987,5.55799984 C3.66388159,5.97075286 3.78936085,6.51674396 4.20310712,6.77509946 Z M11.6870252,4.2156813 L12.1332201,6.39077779 C12.2217834,6.69915749 12.0430698,6.8583141 11.9845122,6.90195875 C11.9283743,6.94501512 11.7227506,7.0738454 11.483659,6.92454945 L5.1939007,3.07902711 C4.51717396,2.63351765 3.15150513,2.86403089 2.6348563,3.69018205 C2.46434749,3.9628612 2.37996253,4.1309431 2.36997078,4.43123457 C1.91768772,4.15579294 0.94047101,4.24011911 0.682521286,4.69986076 C0.266301567,3.92334534 0.35665304,3.15464896 0.682521286,2.63351765 C1.19913498,1.80734455 2.29159593,1.55530751 3.11835067,2.07155776 L3.31941487,2.19710823 C3.32940662,1.89681675 3.41616421,1.59521363 3.58667302,1.32253448 C4.10332185,0.496383322 5.19578279,0.244346281 6.0225024,0.760574587 L11.6870252,4.2156813 Z M14.6446518,0.830006695 C15.1612655,0.00383354923 16.2537264,-0.248203508 17.0804811,0.26804677 C17.3233322,0.419690216 17.5205506,0.620949836 17.6802192,0.89561927 L20.5387717,6.6694464 C21.6346897,8.84316084 21.7026837,11.0606737 20.5387717,13.0176848 C20.7527674,11.6169871 20.4033522,10.3628012 19.71017,8.98789907 L16.8516175,3.21407194 C16.691949,2.93940251 16.4947305,2.73814289 16.2518794,2.58649944 C15.7076907,2.24669177 15.0338686,2.04254552 14.4994355,2.31310183 C14.4004699,1.63745921 14.4488753,1.14309417 14.6446518,0.830006695 Z" id="path-3"></path>
        <path d="M2.29457012,4.3339716 C2.30123128,4.13377727 2.35906967,3.9327085 2.47274221,3.75092239 C2.81717475,3.20015491 3.54548202,3.0321302 4.0966284,3.37628243 L9.02860385,6.45595491 C9.18799829,6.55548555 9.32508071,6.46959869 9.36250598,6.44089444 C9.40154439,6.41179801 9.52068677,6.30569359 9.4616446,6.10010711 L9.05161978,4.10133132 C8.92204441,3.75520272 8.95992867,3.37684981 9.15570515,3.06376233 C9.50011427,2.51298023 10.2284215,2.34495552 10.7795913,2.68912238 C10.9414921,2.79021801 11.072971,2.92439109 11.1794167,3.10750405 L13.0851183,6.95672217 C13.8310004,8.43615288 13.7845042,10.1061214 12.9605042,11.4238695 L12.0609364,12.8624662 C10.941852,14.652116 8.5742444,15.1983368 6.78333486,14.0800395 L1.53655247,10.8037922 C0.985406086,10.4596399 0.817263104,9.73184498 1.16165759,9.18108628 C1.27533012,8.99930016 1.43082205,8.85920918 1.60796212,8.76546696 L0.974186723,8.36971871 C0.423054977,8.02554307 0.254911995,7.29774811 0.599306478,6.74698942 C0.712979011,6.5652033 0.868470944,6.42511232 1.04561017,6.33136957 L0.911544792,6.24765515 C0.360389622,5.90346489 0.19224664,5.17566993 0.536641124,4.62491123 C0.881050243,4.07412913 1.60935751,3.90610442 2.16052732,4.25027128 L2.29457012,4.3339716 Z M8.14917761,3.16803016 L8.4466409,4.6180946 C8.50568307,4.82368108 8.38654069,4.9297855 8.34750228,4.95888194 C8.310077,4.98758618 8.17299458,5.07347304 8.01360014,4.97394241 L3.82042796,2.41026064 C3.3692768,2.11325431 2.45883092,2.26692982 2.11439836,2.8176973 C2.00072583,2.99948342 1.94446918,3.11153802 1.93780802,3.31173236 C1.63628598,3.12810459 0.98480817,3.18432204 0.812841688,3.49081649 C0.535361876,2.9731395 0.595596191,2.46067521 0.812841688,2.11325431 C1.15725082,1.5624722 1.88555811,1.3944475 2.43672794,1.73861435 L2.57077075,1.82231467 C2.57743191,1.62212034 2.63527031,1.42105158 2.74894284,1.23926546 C3.0933754,0.688497982 3.82168269,0.520473275 4.3728291,0.864625506 L8.14917761,3.16803016 Z M10.120929,0.91091352 C10.4653381,0.360131466 11.1936454,0.192106775 11.7448152,0.5362736 C11.9067159,0.637369222 12.0381949,0.771542292 12.1446406,0.954655233 L14.0503422,4.80387302 C14.7809542,6.25301586 14.8262835,7.73135766 14.0503422,9.03603161 C14.193006,8.10223322 13.9600625,7.26610935 13.4979411,6.34950801 L11.5922394,2.50029022 C11.4857938,2.31717728 11.3543148,2.18300421 11.1924141,2.08190859 C10.8296216,1.85537017 10.3804069,1.71927267 10.0241182,1.89964353 C9.95814109,1.44921516 9.99041136,1.11963849 10.120929,0.91091352 Z" id="path-5"></path>
        <linearGradient x1="100%" y1="100%" x2="0%" y2="0%" id="linearGradient-7">
            <stop stop-color="#F0A94E" offset="0%"></stop>
            <stop stop-color="#EF700A" offset="100%"></stop>
        </linearGradient>
        <filter x="-47.4%" y="-50.6%" width="194.7%" height="201.3%" filterUnits="objectBoundingBox" id="filter-8">
            <feGaussianBlur stdDeviation="10" in="SourceGraphic"></feGaussianBlur>
        </filter>
        <path d="M3,0 L76.6214515,0 C78.2783058,7.05355176e-15 79.6214515,1.34314575 79.6214515,3 L79.6214515,63.4100994 L0,63.4100994 L0,3 C-2.02906125e-16,1.34314575 1.34314575,3.04359188e-16 3,0 Z" id="path-9"></path>
        <path d="M4.77867749,9.62272766 C4.79449775,9.14726616 4.93186394,8.66972789 5.20183621,8.23798589 C6.0198635,6.92991324 7.74959327,6.53085459 9.05856594,7.34821607 L20.7720077,14.6624376 C21.1505695,14.8988229 21.4761402,14.6948416 21.5650253,14.626669 C21.6577415,14.557565 21.9407046,14.305567 21.8004795,13.8172992 L20.8266705,9.07020705 C20.518929,8.24815169 20.6089041,7.34956358 21.0738733,6.60598088 C21.891845,5.29787349 23.6215747,4.89881485 24.930603,5.71621106 C25.3151172,5.95631317 25.6273797,6.27497421 25.8801883,6.70986745 L30.4062297,15.8517598 C32.1776997,19.3654074 32.0672712,23.3315824 30.1102711,26.4612339 L27.9737977,29.8779008 C25.315972,34.1283187 19.692904,35.425593 15.4394938,32.7696371 L2.97838557,24.9885503 C1.6694129,24.1711888 1.27007332,22.4426759 2.08801022,21.1346241 C2.35798249,20.7028822 2.72727583,20.3701661 3.1479835,20.1475283 L1.64276692,19.2076263 C0.33382901,18.3902092 -0.0655105738,16.6616963 0.752426328,15.3536445 C1.02239859,14.9219025 1.39169194,14.5891865 1.81239761,14.3665475 L1.49399233,14.1677258 C0.184998791,13.3502739 -0.214340793,11.621761 0.60359611,10.3137092 C1.42156777,9.00560185 3.15129754,8.6065432 4.46032584,9.42393942 L4.77867749,9.62272766 Z M6.83383279,10.9060279 L16.9214343,17.2050267 C17.2489834,17.4095581 17.348714,17.8412347 17.1440386,18.1685535 C16.9393631,18.4958722 16.5073826,18.5955326 16.1798335,18.3910011 L3.71872509,10.6099139 C3.06362682,10.2008511 2.19899148,10.401374 1.7904054,11.0547885 C1.38178455,11.7082585 1.5804948,12.5726888 2.23559308,12.9817517 L14.6967015,20.7628389 C15.0242506,20.9673703 15.1239812,21.3990469 14.9193058,21.7263656 C14.7146304,22.0536843 14.2826499,22.1533447 13.9551007,21.9488133 L3.86749968,15.6498148 C3.21240141,15.2407519 2.34776607,15.4412749 1.93917999,16.0946893 C1.53059391,16.7481037 1.72926939,17.6125896 2.38436767,18.0216525 L12.4719131,24.3206163 C12.7994622,24.5251477 12.8991928,24.9568243 12.6945174,25.284143 C12.4898419,25.6114617 12.0578614,25.7111221 11.7303123,25.5065907 L5.20313922,21.4308294 C4.54804095,21.0217666 3.6834056,21.2222895 3.27481952,21.875704 C2.86623344,22.5291184 3.0648533,23.3935695 3.71995157,23.8026324 L16.18106,31.5837196 C19.7793719,33.8306128 24.5377491,32.7338266 26.7869539,29.1368785 L28.9234274,25.7202115 C30.6194037,23.0079912 30.7068996,19.5535016 29.1555852,16.4741455 L24.651395,7.37387878 C24.5357916,7.1813413 24.3812388,7.02214612 24.1889817,6.90209506 C23.1612184,6.26032905 21.6609009,7.26108752 22.1673348,8.68374776 L23.1561535,13.4780882 C23.4039872,14.3220993 23.1106469,15.210805 22.4114068,15.7404672 C21.7114575,16.2713871 20.7757511,16.3136728 20.0304767,15.8483013 L8.31703477,8.5340793 C7.6619365,8.12501643 6.79730116,8.32553937 6.38871508,8.97895381 C5.98005947,9.63247943 6.17873496,10.4969653 6.83383323,10.9060282 Z M18.6833704,6.85361681 L19.3898457,10.2975197 C19.5300709,10.7857876 19.2471077,11.0377856 19.1543915,11.1068896 C19.0655064,11.1750622 18.7399357,11.3790435 18.3613739,11.1426582 L8.40258992,5.05391427 C7.33110591,4.34852426 5.16879693,4.71350359 4.3507696,6.0215763 C4.08079733,6.45331831 3.9471878,6.71944799 3.93136754,7.19490951 C3.21525268,6.75879358 1.66799288,6.89231002 1.25957248,7.62023432 C0.600557926,6.39075152 0.743614424,5.17364888 1.25957248,4.34852426 C2.07754418,3.04041682 3.80727401,2.64135815 5.11630235,3.45875441 L5.43465402,3.65754266 C5.45047428,3.18208114 5.58784047,2.70454284 5.85781275,2.27280083 C6.67584007,0.964728122 8.40556991,0.565669458 9.71454262,1.38303097 L18.6833704,6.85361681 Z M23.3662787,1.49296507 C24.1842503,0.184857667 25.91398,-0.214200985 27.2230083,0.603195243 C27.6075225,0.843297352 27.919785,1.1619584 28.1725935,1.59685164 L32.6986348,10.7387441 C34.4338382,14.1804584 34.5414953,17.6915203 32.6986348,20.790121 C33.0374613,18.5723497 32.4842205,16.5865555 31.3866822,14.4096273 L26.8606409,5.26773483 C26.6078324,4.83284158 26.2955699,4.51418054 25.9110557,4.27407843 C25.0494235,3.73604966 23.9825386,3.4128181 23.136353,3.8411989 C22.9796574,2.77143149 23.0562993,1.98868688 23.3662787,1.49296507 Z" id="path-11"></path>
    </defs>
    <g id="Desktop" stroke="none" stroke-width="1" fill="none" fill-rule="evenodd">
        <g id="Login" transform="translate(-582.000000, -280.000000)">
            <g id="desktop/bg/login_">
                <g id="img" transform="translate(-541.000000, 0.000000)">
                    <g id="Group-5" transform="translate(1069.000000, 228.000000)">
                        <g id="card/info/laptop">
                            <g id="info-1-copy-2">
                                <g id="icons/Use-the-most-user--friendly-interface" transform="translate(53.674121, 51.490909)">
                                    <g transform="translate(1.073482, 1.072727)">
                                        <g id="ic_filled/clap" transform="translate(0.000000, 56.854545)">
                                            <mask id="mask-2" fill="white">
                                                <use xlink:href="#path-1"></use>
                                            </mask>
                                            <use id="Combined-Shape" fill="#F5A623" fill-rule="nonzero" xlink:href="#path-1"></use>
                                        </g>
                                        <g id="ic_filled/clap-copy" transform="translate(203.961667, 99.763636)">
                                            <mask id="mask-4" fill="white">
                                                <use xlink:href="#path-3"></use>
                                            </mask>
                                            <use id="Combined-Shape" fill="#F5A623" fill-rule="nonzero" xlink:href="#path-3"></use>
                                        </g>
                                        <g id="ic_filled/clap-copy-2" transform="translate(180.345053, 0.000000)">
                                            <mask id="mask-6" fill="white">
                                                <use xlink:href="#path-5"></use>
                                            </mask>
                                            <use id="Combined-Shape" fill="#F5A623" fill-rule="nonzero" xlink:href="#path-5"></use>
                                        </g>
                                    </g>
                                    <g id="icon/laptop" transform="translate(62.261983, 21.454545)">
                                        <g id="laptop">
                                            <path d="M7.44089461,76.2363622 L97.7603841,76.2363622 L97.7603841,4 C97.7603841,2.34314575 96.4172383,1 94.7603841,1 L10.4408946,1 C8.78404036,1 7.44089461,2.34314575 7.44089461,4 L7.44089461,76.2363622 Z" id="Rectangle-3" stroke="#FBD8BA" stroke-width="2" fill="#FFFFFF"></path>
                                            <path d="M1,76.0909077 L1,78.8454531 C1,80.3667465 2.23325198,81.5999985 3.75454539,81.5999985 L101.446733,81.5999985 C102.968027,81.5999985 104.201279,80.3667465 104.201279,78.8454531 L104.201279,76.0909077 L1,76.0909077 Z" id="Mask" stroke="#FBD8BA" stroke-width="2" fill="#FFFFFF"></path>
                                            <g id="Gradient/Violet" transform="translate(12.881789, 5.363636)">
                                                <g transform="translate(6.870288, 7.714468)" fill="url(#linearGradient-7)" id="Rectangle-8">
                                                    <rect filter="url(#filter-8)" x="0" y="0" width="63.3354637" height="59.2383818"></rect>
                                                </g>
                                                <mask id="mask-10" fill="white">
                                                    <use xlink:href="#path-9"></use>
                                                </mask>
                                                <use id="Mask" fill="#FFFFFF" xlink:href="#path-9"></use>
                                                <g mask="url(#mask-10)" fill="#F5A623" id="Rectangle-8">
                                                    <g transform="translate(-6.011502, -33.168360)">
                                                        <polygon points="0 0 108.207033 0 108.207033 105.358321 0 105.358321"></polygon>
                                                    </g>
                                                </g>
                                            </g>
                                            <g id="ic_outlined/clap" transform="translate(35.424920, 20.381818)">
                                                <mask id="mask-12" fill="white">
                                                    <use xlink:href="#path-11"></use>
                                                </mask>
                                                <use id="Combined-Shape" fill="#7F7F7F" fill-rule="nonzero" xlink:href="#path-11"></use>
                                                <g id="Color/main/white" mask="url(#mask-12)" fill="#FFFFFF">
                                                    <g transform="translate(0.000000, -1.072727)" id="Rectangle-6">
                                                        <rect x="0" y="0" width="34.3514366" height="37.5454521"></rect>
                                                    </g>
                                                </g>
                                            </g>
                                        </g>
                                    </g>
                                </g>
                            </g>
                        </g>
                    </g>
                </g>
            </g>
        </g>
    </g>
</svg>