<?xml version="1.0" encoding="UTF-8"?>
<svg width="184px" height="141px" viewBox="0 0 184 141" version="1.1" xmlns="http://www.w3.org/2000/svg" xmlns:xlink="http://www.w3.org/1999/xlink">
    <!-- Generator: sketchtool 52.5 (67469) - http://www.bohemiancoding.com/sketch -->
    <title>BDC54E9A-908C-47B4-BCC2-9E835B810034</title>
    <desc>Created with sketchtool.</desc>
    <defs>
        <path d="M5.22743122,8.86402411 C4.66026108,7.95629621 4.27289419,6.86151769 4.27289419,5.68294399 C4.27289419,5.45306219 4.28327337,5.22636836 4.30344907,5.00362873 C4.45170682,2.2092401 6.31323963,0 8.58785958,0 L8.59429606,0 C8.68957458,0 8.78413291,0.00405499044 8.87787671,0.0120408993 C10.9205633,0.18221215 12.5722981,2.13673049 12.8429081,4.63875021 C12.8907091,4.9772312 12.9156979,5.32624993 12.9156979,5.68294399 C12.9156979,7.00480722 12.4284141,8.22126122 11.7466932,9.18662522 C11.7193684,9.22745157 11.6916312,9.26780348 11.6634907,9.30766447 L11.6634907,10.9449024 C13.0938699,11.4111874 14.9427118,12.2009545 15.8815952,13.2175989 C16.5777918,13.9714566 17.0080167,15.8937111 17.1722698,18.0185259 C17.1745686,18.0482633 17.1757192,18.0780735 17.1757192,18.1078942 C17.1757192,18.768657 16.6229278,19.3043111 15.941025,19.3043111 L1.23473089,19.3043034 C1.2081649,19.3043034 1.18160584,19.3034726 1.15509517,19.3018122 C0.474615695,19.2591941 -0.0413677835,18.6901093 0.00261551016,18.0307257 C0.141775267,15.9444059 0.543108692,14.0460819 1.20661578,13.3015902 C2.15236694,12.2404052 4.03312557,11.4199452 5.51944952,10.9449024 L5.51944952,9.31786978 C5.41661355,9.17286458 5.31912718,9.0213168 5.22743122,8.86402411 Z M10.590008,10.4308858 C9.99220596,10.8785402 9.31090271,11.1401518 8.58785944,11.1401518 C7.86772583,11.1401518 7.18899697,10.8806415 6.59293187,10.4362811 L6.59293187,11.7280655 L5.84646704,11.9666425 C4.15536003,12.5071359 2.67565978,13.2661827 2.00826715,14.0150341 C1.59690329,14.476607 1.20862323,16.0795824 1.07372106,18.1020714 C1.06977834,18.1611794 1.12789416,18.2252761 1.22224243,18.2311851 C1.22639957,18.231402 6.13266034,18.2315347 15.9410247,18.2315833 C16.0373297,18.2315833 16.1022365,18.1686888 16.1022365,18.1078936 C15.9423186,16.0357856 15.5277606,14.4161974 15.092712,13.9451167 C14.4355318,13.233507 13.0003807,12.5090737 11.3305693,11.9647369 L10.590008,11.7233235 L10.590008,10.4308858 Z M16.1022367,8.77744385 C16.1022367,6.2995991 17.43597,4.29090904 19.0812134,4.29090904 C20.7264568,4.29090904 22.0601901,6.2995991 22.0601901,8.77744385 C22.0601901,9.59284855 21.8551105,10.3574473 21.541252,11.0163763 L21.541252,12.7194707 C22.6427219,13.0868277 24.0664308,13.7090361 24.7894221,14.5099871 C25.2933588,15.0682629 25.6163274,16.4884664 25.7583277,18.0010886 C25.7618265,18.0383584 25.7635787,18.0757724 25.7635787,18.1132071 C25.7635787,18.7739624 25.229355,19.3096104 24.5703566,19.3096104 L18.3839766,19.3096104 C18.8154269,19.0304333 18.7291944,18.2125596 18.7291944,18.1132027 C18.7291944,18.0833821 18.5358523,13.8249822 16.8100059,12.1997192 L16.8100059,11.3780603 C16.3921004,10.6444597 16.1022367,9.7468568 16.1022367,8.77744385 Z M8.58785958,10.0674249 C10.220562,10.0674249 11.8083069,7.87323052 11.8083069,5.3636363 C11.8083069,2.94780194 10.3071911,1.07272726 8.58785958,1.07272726 C6.86852801,1.07272726 5.36741224,2.94780194 5.36741224,5.3636363 C5.36741224,7.87323052 6.95515715,10.0674249 8.58785958,10.0674249 Z" id="path-1"></path>
        <path d="M13.7800098,1.96490218 C15.1316987,2.50675478 16.460064,4.04366577 16.460064,5.60473293 C16.460064,5.88981232 16.460064,6.71697566 16.460064,8.08622295 C16.460064,10.1400939 14.7854875,12.8555751 12.7464458,12.9963421 L12.7464458,14.244679 C12.7464458,14.4818582 12.5867602,14.6606058 12.3750839,14.6606058 C12.274551,14.6606058 12.1758748,14.6173133 12.0973583,14.5386962 L11.6939002,14.1347214 C10.6620449,13.1015443 9.26652016,12.6758493 7.76462682,12.6758493 L7.30602319,12.6758493 C8.04622635,12.0522932 9.1877175,11.9241387 10.1335241,11.9241387 L10.5162921,11.9241387 C12.4647753,11.9241387 14.5104144,9.85428489 14.5104144,7.96722899 L14.5104144,4.95401732 C14.5104144,4.39712852 14.5247704,3.85844243 14.3998661,3.32181739 C14.2615517,2.72757868 14.0670707,2.30574943 13.7800098,1.96490218 Z M9.71319052,0.357575764 C11.8549852,0.357575764 13.5974444,2.10226673 13.5974444,4.24706787 L13.5974444,7.23341654 C13.5974444,9.39295859 11.8549852,11.1500214 9.71292763,11.1502846 L9.33357207,11.1502846 C7.84506817,11.1502846 6.46198462,11.7141241 5.43932828,12.7380903 L5.03946702,13.1384637 C4.9616505,13.2163799 4.86385406,13.2592864 4.76421736,13.2592864 C4.55442822,13.2592864 4.39616623,13.0821324 4.39616623,12.8470676 L4.39616623,11.1410715 C2.37530267,11.0015594 0.715654986,9.26897708 0.715654986,7.23341654 L0.715654986,4.24706787 C0.715654986,2.10226673 2.45811417,0.357575764 4.59990882,0.357575764 L9.71319052,0.357575764 Z M9.33357233,10.435133 L9.71283989,10.435133 C11.4582238,10.4349185 12.8817898,8.99947354 12.8817898,7.23341647 L12.8817898,4.24706785 C12.8817898,2.49695006 11.4594552,1.07272729 9.71319079,1.07272729 L4.59990894,1.07272729 C2.85364451,1.07272729 1.43130997,2.49695006 1.43130997,4.24706785 L1.43130997,7.23341647 C1.43130997,8.88082982 2.78743089,10.3131549 4.44548944,10.4276204 L5.11182133,10.4736212 L5.11182133,12.0607637 C6.24959309,11.0104691 7.74135896,10.435133 9.33357233,10.435133 Z M10.1366123,3.22141492 C10.4659834,3.22141492 10.7329914,3.54196103 10.7329914,3.9373747 C10.7329914,4.33278838 10.4659834,4.65333449 10.1366123,4.65333449 L4.17282102,4.65333449 C3.84344993,4.65333449 3.5764419,4.33278838 3.5764419,3.9373747 C3.5764419,3.54196103 3.84344993,3.22141492 4.17282102,3.22141492 L10.1366123,3.22141492 Z M7.95982841,6.80121411 C8.30566806,6.80121411 8.58602649,7.12176023 8.58602649,7.5171739 C8.58602649,7.91258757 8.30566806,8.23313369 7.95982841,8.23313369 L4.20263997,8.23313369 C3.85680033,8.23313369 3.5764419,7.91258757 3.5764419,7.5171739 C3.5764419,7.12176023 3.85680033,6.80121411 4.20263997,6.80121411 L7.95982841,6.80121411 Z" id="path-3"></path>
        <path d="M19.9371814,12.2597401 L12.2683708,12.2597401 L12.2683708,19.9209989 C12.2683708,20.7679531 11.5817787,21.4545452 10.7348245,21.4545452 L10.7348245,21.4545452 C9.88787021,21.4545452 9.20127812,20.7679531 9.20127812,19.9209989 L9.20127812,12.2597401 L1.53246751,12.2597401 C0.686109077,12.2597401 1.03649015e-16,11.573631 0,10.7272726 L0,10.7272726 C-1.03649015e-16,9.88091417 0.686109077,9.19480509 1.53246751,9.19480509 L9.20127812,9.19480509 L9.20127812,1.53354635 C9.20127812,0.686592089 9.88787021,1.55582974e-16 10.7348245,0 L10.7348245,0 C11.5817787,-1.55582974e-16 12.2683708,0.686592089 12.2683708,1.53354635 L12.2683708,9.19480509 L19.9371814,9.19480509 C20.7835399,9.19480509 21.4696489,9.88091417 21.4696489,10.7272726 L21.4696489,10.7272726 C21.4696489,11.573631 20.7835399,12.2597401 19.9371814,12.2597401 Z" id="path-5"></path>
        <path d="M12.2250109,0.625757546 L27.4938373,0.625757546 C33.8894737,0.625757546 39.0926502,5.8252736 39.0926502,12.2171953 L39.0926502,21.1170911 C39.0926502,27.1834547 34.1367581,32.3468847 28.1022353,32.7626578 L28.1022353,37.8468556 C28.1022353,38.5473939 27.6296474,39.0753472 27.0031938,39.0753472 C26.7056676,39.0753472 26.4136365,38.9474774 26.1812678,38.7152721 L24.9872377,37.522082 C21.9334724,34.470465 17.8034315,32.7901145 13.3585937,32.7901145 L12.2257959,32.7901145 C5.82937448,32.78933 0.626198059,27.5529435 0.626198059,21.1170911 L0.626198059,12.2171953 C0.626198059,5.8252736 5.82937448,0.625757546 12.2250109,0.625757546 Z M26.1789135,30.9686419 L27.9699419,30.8452417 C33.0331506,30.4963914 37.1693288,26.1364472 37.1693288,21.1170921 L37.1693288,12.2171958 C37.1693288,6.88684972 32.8273545,2.54772718 27.4938382,2.54772718 L12.2250113,2.54772718 C6.89149497,2.54772718 2.54952069,6.88684972 2.54952069,12.2171958 L2.54952069,21.1170921 C2.54952069,26.4946173 6.89481933,30.8674926 12.2257963,30.8681464 L13.3585941,30.8681464 C18.2288437,30.8681464 22.7790148,32.6872906 26.1789135,35.997031 L26.1789135,30.9686419 Z M9.31948858,10.2356056 L30.3993607,10.2356056 C30.9516454,10.2356056 31.3993607,10.6833208 31.3993607,11.2356056 L31.3993607,13.0795448 C31.3993607,13.6318296 30.9516454,14.0795448 30.3993607,14.0795448 L9.31948858,14.0795448 C8.76720383,14.0795448 8.31948858,13.6318296 8.31948858,13.0795448 L8.31948858,11.2356056 C8.31948858,10.6833208 8.76720383,10.2356056 9.31948858,10.2356056 Z M9.31948858,19.8501616 L22.7060696,19.8501616 C23.2583544,19.8501616 23.7060696,20.2978768 23.7060696,20.8501616 L23.7060696,22.6941008 C23.7060696,23.2463856 23.2583544,23.6941008 22.7060696,23.6941008 L9.31948858,23.6941008 C8.76720383,23.6941008 8.31948858,23.2463856 8.31948858,22.6941008 L8.31948858,20.8501616 C8.31948858,20.2978768 8.76720383,19.8501616 9.31948858,19.8501616 Z" id="path-7"></path>
        <filter x="-69.9%" y="-69.9%" width="239.7%" height="239.8%" filterUnits="objectBoundingBox" id="filter-9">
            <feGaussianBlur stdDeviation="10" in="SourceGraphic"></feGaussianBlur>
        </filter>
        <path d="M46.4631673,11.7999998 L69.4729344,11.7999998 C79.1110101,11.7999998 86.9520762,19.6334718 86.9520762,29.2633947 L86.9520762,42.6717741 C86.9520762,51.8112186 79.4836618,59.5903242 70.389776,60.2167183 L70.389776,67.8764545 C70.389776,68.9318695 69.6775971,69.7272718 68.733546,69.7272718 C68.2851808,69.7272718 67.8450969,69.5346261 67.4949225,69.1847909 L65.6955469,67.387158 C61.0935935,62.7896617 54.8697177,60.258084 48.1714502,60.258084 L46.4643503,60.258084 C36.8250915,60.2569021 28.9840254,52.367882 28.9840254,42.6717741 L28.9840254,29.2633947 C28.9840254,19.6334718 36.8250915,11.7999998 46.4631673,11.7999998 Z M42.307165,25.9895989 C41.7548802,25.9895989 41.307165,26.4373141 41.307165,26.9895989 L41.307165,29.9140806 C41.307165,30.4663653 41.7548802,30.9140806 42.307165,30.9140806 L74.8119565,30.9140806 C75.3642413,30.9140806 75.8119565,30.4663653 75.8119565,29.9140806 L75.8119565,26.9895989 C75.8119565,26.4373141 75.3642413,25.9895989 74.8119565,25.9895989 L42.307165,25.9895989 Z M42.307165,40.7630445 C41.7548802,40.7630445 41.307165,41.2107598 41.307165,41.7630445 L41.307165,44.6875262 C41.307165,45.239811 41.7548802,45.6875262 42.307165,45.6875262 L64.9534441,45.6875262 C65.5057288,45.6875262 65.9534441,45.239811 65.9534441,44.6875262 L65.9534441,41.7630445 C65.9534441,41.2107598 65.5057288,40.7630445 64.9534441,40.7630445 L42.307165,40.7630445 Z" id="path-10"></path>
    </defs>
    <g id="Desktop" stroke="none" stroke-width="1" fill="none" fill-rule="evenodd">
        <g id="Login_login-slider3" transform="translate(-603.000000, -280.000000)">
            <g id="desktop/bg/login_">
                <g id="img" transform="translate(-541.000000, 0.000000)">
                    <g id="Group-5" transform="translate(1069.000000, 228.000000)">
                        <g id="card/info/laptop">
                            <g id="info-1-copy-2">
                                <g id="icons/Сreate-and-join-communities" transform="translate(75.143770, 51.490909)">
                                    <g id="Сreate-and-join-communities" transform="translate(0.000000, 1.072727)">
                                        <g id="ic_filled/clap" transform="translate(8.587860, 120.145453)">
                                            <mask id="mask-2" fill="white">
                                                <use xlink:href="#path-1"></use>
                                            </mask>
                                            <path stroke="#979797" d="M5.65146392,8.59907832 L5.65939012,8.61220769 C5.74374709,8.75691128 5.83320791,8.8959571 5.92729724,9.02862898 L6.01944952,9.1585695 L6.01944952,11.3100145 L5.67166854,11.4211685 C3.8905869,11.9904185 2.3326809,12.7895828 1.57988774,13.6342583 C1.05535527,14.2228127 0.644612776,15.918522 0.501506864,18.0640036 C0.476193109,18.4434993 0.778816021,18.7772664 1.18634869,18.80279 C1.210521,18.804051 1.210521,18.804051 1.23473115,18.8043034 L15.941025,18.8043111 C16.3502476,18.8043111 16.6757192,18.4889296 16.6757192,18.1078942 C16.6757192,18.0909338 16.6750647,18.0739785 16.6737571,18.0570621 C16.5045104,15.8676501 16.065916,14.1541568 15.5142731,13.5568253 C14.772918,12.7540689 13.2648065,11.9928068 11.5085233,11.4202813 L11.1634907,11.3078051 L11.1634907,9.14895517 L11.2550229,9.01929991 C11.2934434,8.96439186 11.2934434,8.96439186 11.3382665,8.89820245 C12.0231741,7.92832591 12.4156979,6.80970109 12.4156979,5.68294399 C12.4156979,5.3531475 12.3928398,5.02744952 12.3458072,4.69251497 C12.0979805,2.40114649 10.6103756,0.658103205 8.8354361,0.510236438 C8.75544706,0.503422278 8.67504785,0.5 8.59429606,0.5 L8.58785958,0.5 C6.61553221,0.5 4.93868427,2.46794594 4.80141043,5.04873395 C4.7824567,5.25798303 4.77289419,5.46963373 4.77289419,5.68294399 C4.77289419,6.69341089 5.08788288,7.69709461 5.65146392,8.59907832 Z M11.090008,11.3604208 L11.4855367,11.489358 C13.2873998,12.0767419 14.7515462,12.8387236 15.460034,13.6058904 C16.009293,14.2006406 16.4358426,15.9326089 16.6022365,18.1078936 C16.6022365,18.4730072 16.2888722,18.7315833 15.9410223,18.7315833 C1.01706383,18.7315094 1.21552749,18.7315147 1.1909889,18.7302074 C0.845230251,18.7085527 0.550535383,18.4330062 0.574829619,18.0687948 C0.713944183,15.9831526 1.11255272,14.2685753 1.63499519,13.682366 C2.35628023,12.8730443 3.87237598,12.0726635 5.69424803,11.4903764 L6.09293187,11.3629534 L6.09293187,9.43988665 L6.89177349,10.0354149 C7.42419586,10.4323303 8.00095958,10.6401518 8.58785944,10.6401518 C9.1771091,10.6401518 9.75615718,10.4306512 10.2903069,10.0306619 L11.090008,9.43181861 L11.090008,11.3604208 Z M17.3100059,11.9934331 C18.0711437,12.8055519 18.5796324,14.0799452 18.9063462,15.6530797 C19.1120566,16.64358 19.2291944,17.7575259 19.2291944,18.1132027 C19.2294123,18.1140345 19.2294123,18.1140345 19.2322242,18.1740012 C19.242087,18.3974144 19.2362192,18.5984366 19.19894,18.8096104 L24.5703566,18.8096104 C24.9529142,18.8096104 25.2635787,18.4981176 25.2635787,18.1132071 C25.2635787,18.0913756 25.2625568,18.0695564 25.2605164,18.0478215 C25.1142846,16.4901239 24.7898283,15.2566418 24.4182675,14.8450158 C23.8638337,14.2307978 22.7177854,13.6389376 21.3830605,13.1937865 L21.041252,13.0797881 L21.041252,11.0163763 L21.0898438,10.8013633 C21.3937141,10.1634038 21.5601901,9.47279116 21.5601901,8.77744385 C21.5601901,6.54294459 20.3968707,4.79090904 19.0812134,4.79090904 C17.7655561,4.79090904 16.6022367,6.54294459 16.6022367,8.77744385 C16.6022367,9.59718958 16.8340976,10.4102144 17.2444574,11.1305691 L17.3100059,11.2456344 L17.3100059,11.9934331 Z M8.58785958,10.5674249 C6.60330915,10.5674249 4.86741224,8.07705289 4.86741224,5.3636363 C4.86741224,2.73900767 6.52622778,0.57272726 8.58785958,0.57272726 C10.6494914,0.57272726 12.3083069,2.73900767 12.3083069,5.3636363 C12.3083069,8.07705289 10.57241,10.5674249 8.58785958,10.5674249 Z"></path>
                                            <g id="Color/branding/Blue" mask="url(#mask-2)" fill="#0768EF">
                                                <g transform="translate(-13.955272, -15.018182)" id="Rectangle-8">
                                                    <polygon points="0 0 48.3067093 0 48.3067093 48.272728 0 48.272728"></polygon>
                                                </g>
                                            </g>
                                        </g>
                                        <g id="ic_filled/clap-copy">
                                            <mask id="mask-4" fill="white">
                                                <use xlink:href="#path-3"></use>
                                            </mask>
                                            <use id="Combined-Shape" fill="#072650" fill-rule="nonzero" xlink:href="#path-3"></use>
                                            <g id="Color/branding/Blue" mask="url(#mask-4)" fill="#0768EF">
                                                <g transform="translate(-7.514377, -22.527272)" id="Rectangle-8">
                                                    <polygon points="0 0 107.348244 0 107.348244 107.272728 0 107.272728"></polygon>
                                                </g>
                                            </g>
                                        </g>
                                        <g id="ic_filled/clap-copy-3" transform="translate(162.095850, 16.090909)">
                                            <mask id="mask-6" fill="white">
                                                <use xlink:href="#path-5"></use>
                                            </mask>
                                            <use id="Shape" fill="#FFFFFF" fill-rule="nonzero" xlink:href="#path-5"></use>
                                            <g id="Color/branding/Blue" mask="url(#mask-6)" fill="#0768EF">
                                                <g transform="translate(-55.821087, -38.618181)" id="Rectangle-8">
                                                    <polygon points="0 0 107.348244 0 107.348244 107.272728 0 107.272728"></polygon>
                                                </g>
                                            </g>
                                        </g>
                                    </g>
                                    <g id="icon/message" transform="translate(48.306710, 35.400000)">
                                        <g id="laptop" transform="translate(2.146965, 0.000000)">
                                            <g id="ic_outlined/comment" transform="translate(19.859425, 19.845454) scale(-1, 1) translate(-19.859425, -19.845454) ">
                                                <mask id="mask-8" fill="white">
                                                    <use xlink:href="#path-7"></use>
                                                </mask>
                                                <use id="Combined-Shape" fill="#7F7F7F" fill-rule="nonzero" xlink:href="#path-7"></use>
                                                <g id="Color/main/Dark-cerulean" mask="url(#mask-8)" fill="#0768EF">
                                                    <g transform="translate(-42.939297, -30.036363)" id="Rectangle-8">
                                                        <polygon points="0 0 107.348244 0 107.348244 107.272728 0 107.272728"></polygon>
                                                    </g>
                                                </g>
                                            </g>
                                            <path d="M49.6664534,27.8909087 L66.2696482,27.8909087 C73.6295021,27.8909087 79.4376993,33.6934805 79.4376993,41.0496964 L79.4376993,50.7757569 C79.4376993,57.5288485 73.9055405,63.291149 67.4146961,63.9345446 L67.4146961,69.6557567 C67.1693287,70.2108122 66.6417888,70.7999991 65.6971243,70.7999991 C65.6103694,70.7999991 65.2843812,70.6572985 65.1246003,70.2278779 L63.4070284,69.0836355 C60.2832676,65.6610286 55.6729892,63.7857859 50.8115013,63.9345446 L49.6664534,63.9345446 C42.3065995,63.7849104 36.4984024,57.9411918 36.4984024,50.7757569 L36.4984024,41.0496964 C36.4984024,33.6934805 42.3065995,27.8909087 49.6664534,27.8909087 Z M46.69968,37.8519474 C46.1473952,37.8519474 45.69968,38.2996627 45.69968,38.8519474 L45.69968,40.6831162 C45.69968,41.2354009 46.1473952,41.6831162 46.69968,41.6831162 L70.0031939,41.6831162 C70.5554787,41.6831162 71.0031939,41.2354009 71.0031939,40.6831162 L71.0031939,38.8519474 C71.0031939,38.2996627 70.5554787,37.8519474 70.0031939,37.8519474 L46.69968,37.8519474 Z M46.69968,49.3454539 C46.1473952,49.3454539 45.69968,49.7931691 45.69968,50.3454539 L45.69968,52.1766226 C45.69968,52.7289074 46.1473952,53.1766226 46.69968,53.1766226 L63.1022352,53.1766226 C63.65452,53.1766226 64.1022352,52.7289074 64.1022352,52.1766226 L64.1022352,50.3454539 C64.1022352,49.7931691 63.65452,49.3454539 63.1022352,49.3454539 L46.69968,49.3454539 Z" id="Combined-Shape" fill="#0768EF" fill-rule="nonzero" filter="url(#filter-9)"></path>
                                            <polygon id="Path-2" fill="#FFFFFF" points="37.5718848 23.5999997 37.5718848 50.4181812 78.3642168 50.4181812 78.3642168 23.5999997"></polygon>
                                            <mask id="mask-11" fill="white">
                                                <use xlink:href="#path-10"></use>
                                            </mask>
                                            <use id="Combined-Shape" fill="#083D86" fill-rule="nonzero" xlink:href="#path-10"></use>
                                            <g id="Color/branding/Blue" mask="url(#mask-11)" fill="#0768EF">
                                                <g transform="translate(9.661342, -21.454545)" id="Rectangle-8">
                                                    <polygon points="0 0 107.348244 0 107.348244 107.272728 0 107.272728"></polygon>
                                                </g>
                                            </g>
                                        </g>
                                    </g>
                                </g>
                            </g>
                        </g>
                    </g>
                </g>
            </g>
        </g>
    </g>
</svg>