<?xml version="1.0" encoding="UTF-8"?>
<svg width="179px" height="129px" viewBox="0 0 179 129" version="1.1" xmlns="http://www.w3.org/2000/svg" xmlns:xlink="http://www.w3.org/1999/xlink">
    <!-- Generator: Sketch 52.2 (67145) - http://www.bohemiancoding.com/sketch -->
    <title>desktop/bg/Pattern/Share your thoughts</title>
    <desc>Created with Sketch.</desc>
    <defs>
        <path d="M18.2551027,2.24753271 C20.1438465,3.00520797 22,5.15427846 22,7.33712666 C22,7.73575462 22,8.89238135 22,10.8070068 C22,13.6789451 19.6600782,17.4760163 16.8108815,17.6728516 L16.8108815,19.4184074 C16.8108815,19.7500563 16.5877494,20 16.2919696,20 C16.1514928,20 16.0136105,19.9394639 15.9038977,19.8295332 L15.340137,19.2646531 C13.8983034,17.8199564 11.9483068,17.2247048 9.849679,17.2247048 L9.2088623,17.2247048 C10.2431641,16.3527832 11.8381941,16.173584 13.15979,16.173584 L13.6946399,16.173584 C16.4172974,16.173584 19.2757128,13.2792969 19.2757128,10.640617 L19.2757128,6.42722769 C19.2757128,5.64852724 19.2957726,4.89527972 19.1212412,4.14491418 C18.9279715,3.31398716 18.656219,2.72414116 18.2551027,2.24753271 Z M12.572449,0 C15.5652245,0 18,2.43961029 18,5.43869668 L18,9.61452328 C18,12.634222 15.5652245,15.0911318 12.5720816,15.0914999 L12.042,15.0914999 C9.96208163,15.0914999 8.02946939,15.8799195 6.6004898,17.3117367 L6.0417551,17.8715808 C5.93302041,17.9805315 5.79636735,18.0405279 5.65714286,18.0405279 C5.364,18.0405279 5.14285714,17.7928125 5.14285714,17.4641203 L5.14285714,15.0786172 C2.31906122,14.8835367 0,12.460858 0,9.61452328 L0,5.43869668 C0,2.43961029 2.43477551,0 5.42755102,0 L12.572449,0 Z M12.042,14.0914999 L12.5719587,14.0914999 C15.0108209,14.0912 17,12.0840099 17,9.61452328 L17,5.43869668 C17,2.991498 15.0125416,1 12.572449,1 L5.42755102,1 C2.98745843,1 1,2.991498 1,5.43869668 L1,9.61452328 C1,11.9181098 2.89493673,13.9209373 5.21177736,14.0809951 L6.14285714,14.1453182 L6.14285714,16.3646277 C7.73268992,14.8959954 9.81716625,14.0914999 12.042,14.0914999 Z M13.1641054,4.00452104 C13.6243427,4.00452104 13.9974387,4.45274232 13.9974387,5.0056513 C13.9974387,5.55856027 13.6243427,6.00678156 13.1641054,6.00678156 L4.83077205,6.00678156 C4.37053475,6.00678156 3.99743871,5.55856027 3.99743871,5.0056513 C3.99743871,4.45274232 4.37053475,4.00452104 4.83077205,4.00452104 L13.1641054,4.00452104 Z M10.1224387,9.01017234 C10.6056879,9.01017234 10.9974387,9.45839362 10.9974387,10.0113026 C10.9974387,10.5642116 10.6056879,11.0124329 10.1224387,11.0124329 L4.87243871,11.0124329 C4.38918956,11.0124329 3.99743871,10.5642116 3.99743871,10.0113026 C3.99743871,9.45839362 4.38918956,9.01017234 4.87243871,9.01017234 L10.1224387,9.01017234 Z" id="path-1"></path>
        <linearGradient x1="100%" y1="100%" x2="0%" y2="0%" id="linearGradient-3">
            <stop stop-color="#30CFAA" offset="0%"></stop>
            <stop stop-color="#16A171" offset="100%"></stop>
        </linearGradient>
        <path d="M4.3537415,0.333333333 L9.6462585,0.333333333 C11.8631293,0.333333333 13.6666667,2.13687075 13.6666667,4.35401361 L13.6666667,7.44108844 C13.6666667,9.54530612 11.9488435,11.3363265 9.85714286,11.4805442 L9.85714286,13.2440816 C9.85714286,13.4870748 9.69333333,13.6702041 9.47619048,13.6702041 C9.37306122,13.6702041 9.27183673,13.6258503 9.19129252,13.5453061 L8.77741497,13.1314286 C7.71891156,12.0729252 6.28734694,11.490068 4.74666667,11.490068 L4.35401361,11.490068 C2.13687075,11.4897959 0.333333333,9.67346939 0.333333333,7.44108844 L0.333333333,4.35401361 C0.333333333,2.13687075 2.13687075,0.333333333 4.3537415,0.333333333 Z M9.19047619,10.8582599 L9.81128667,10.8154565 C11.5663081,10.694452 13,9.182134 13,7.44108844 L13,4.35401361 C13,2.50509574 11.4949746,1 9.6462585,1 L4.3537415,1 C2.50502542,1 1,2.50509574 1,4.35401361 L1,7.44108844 C1,9.30637113 2.50617772,10.8231746 4.35401361,10.8234014 L4.74666667,10.8234014 C6.43480414,10.8234014 8.01199524,11.4544013 9.19047619,12.602439 L9.19047619,10.8582599 Z M3.66666667,3.66666667 L10.3333333,3.66666667 C10.7015232,3.66666667 11,3.9651435 11,4.33333333 C11,4.70152317 10.7015232,5 10.3333333,5 L3.66666667,5 C3.29847683,5 3,4.70152317 3,4.33333333 C3,3.9651435 3.29847683,3.66666667 3.66666667,3.66666667 Z M3.66666667,7.00163265 L7.66666667,7.00163265 C8.0348565,7.00163265 8.33333333,7.30010949 8.33333333,7.66829932 C8.33333333,8.03648915 8.0348565,8.33496599 7.66666667,8.33496599 L3.66666667,8.33496599 C3.29847683,8.33496599 3,8.03648915 3,7.66829932 C3,7.30010949 3.29847683,7.00163265 3.66666667,7.00163265 Z" id="path-4"></path>
        <path d="M15,2 L15,17.5787964 C15,18.1310811 16,18.1310811 16,17.5787964 L16,8 C16,7.44771525 16.4477153,7 17,7 C17.5522847,7 18,7.44771525 18,8 L18,18 C18,19.1045695 17.1045695,20 16,20 L2,20 C0.8954305,20 1.31838984e-16,19.1045695 0,18 L0,2 C-1.31838984e-16,0.8954305 0.8954305,1.38777878e-16 2,0 L13,0 C14.1045695,-2.77555756e-16 15,0.8954305 15,2 Z M10.5,4 C10.2238576,4 10,4.22385763 10,4.5 L10,5.5 C10,5.77614237 10.2238576,6 10.5,6 L12.5,6 C12.7761424,6 13,5.77614237 13,5.5 L13,4.5 C13,4.22385763 12.7761424,4 12.5,4 L10.5,4 Z M2.5,2 C2.22385763,2 2,2.22385763 2,2.5 L2,7.5 C2,7.77614237 2.22385763,8 2.5,8 L7.5,8 C7.77614237,8 8,7.77614237 8,7.5 L8,2.5 C8,2.22385763 7.77614237,2 7.5,2 L2.5,2 Z M2.5,10 C2.22385763,10 2,10.2238576 2,10.5 L2,11.5 C2,11.7761424 2.22385763,12 2.5,12 L12.5,12 C12.7761424,12 13,11.7761424 13,11.5 L13,10.5 C13,10.2238576 12.7761424,10 12.5,10 L2.5,10 Z M2.5,14 C2.22385763,14 2,14.2238576 2,14.5 L2,15.5 C2,15.7761424 2.22385763,16 2.5,16 L12.5,16 C12.7761424,16 13,15.7761424 13,15.5 L13,14.5 C13,14.2238576 12.7761424,14 12.5,14 L2.5,14 Z" id="path-6"></path>
        <filter x="-60.9%" y="-75.2%" width="221.8%" height="250.5%" filterUnits="objectBoundingBox" id="filter-8">
            <feGaussianBlur stdDeviation="10" in="SourceGraphic"></feGaussianBlur>
        </filter>
    </defs>
    <g id="desktop/bg/Pattern/Share-your-thoughts" stroke="none" stroke-width="1" fill="none" fill-rule="evenodd">
        <g id="Share-your-thoughts" transform="translate(1.000000, 1.000000)">
            <g id="ic_filled/clap" transform="translate(0.000000, 106.000000)">
                <mask id="mask-2" fill="white">
                    <use xlink:href="#path-1"></use>
                </mask>
                <use id="Combined-Shape" fill="#072650" fill-rule="nonzero" xlink:href="#path-1"></use>
                <g id="Dark-cerulean" mask="url(#mask-2)" fill="url(#linearGradient-3)" fill-rule="nonzero">
                    <g transform="translate(-1.000000, -2.000000)" id="Rectangle-8">
                        <rect x="0" y="0" width="24" height="24"></rect>
                    </g>
                </g>
            </g>
            <g id="ic_filled/clap-copy" transform="translate(122.000000, 0.000000)">
                <mask id="mask-5" fill="white">
                    <use xlink:href="#path-4"></use>
                </mask>
                <use id="Combined-Shape" fill="#30CFAA" fill-rule="nonzero" xlink:href="#path-4"></use>
            </g>
            <g id="ic_filled/clap-copy-3" transform="translate(157.000000, 73.000000)">
                <mask id="mask-7" fill="white">
                    <use xlink:href="#path-6"></use>
                </mask>
                <use id="Combined-Shape" fill="#30CFAA" xlink:href="#path-6"></use>
            </g>
        </g>
        <g id="desktop/bg/icon/Message" transform="translate(34.000000, 9.000000)">
            <g id="Group-2" transform="translate(32.000000, 40.000000)" fill="#30CFAA">
                <path d="M6.12289834,52.1983328 L54.3957833,32.7614584 C54.6519407,32.6583177 54.7759852,32.3670491 54.6728445,32.1108917 C54.6220302,31.9846906 54.5219844,31.8846448 54.3957833,31.8338304 L6.12289834,12.3969561 C5.86674095,12.2938154 5.57547231,12.4178599 5.47233161,12.6740173 C5.44842987,12.733379 5.43614559,12.7967771 5.43614559,12.86077 L5.43614559,27.36329 C5.43614559,27.8776533 5.82634028,28.3081218 6.33823199,28.3584849 L43.8494603,32.049078 C43.986868,32.0625971 44.0872997,32.1849474 44.0737806,32.3223551 C44.0621024,32.441053 43.9682014,32.5349711 43.8495056,32.546671 L6.33805073,36.2441847 C5.82623762,36.2946343 5.43614559,36.7250683 5.43614559,37.2393618 L5.43614559,51.7345188 C5.43614559,52.0106612 5.66000322,52.2345188 5.93614559,52.2345188 C6.00013858,52.2345188 6.06353666,52.2222345 6.12289834,52.1983328 Z" id="Shape" fill-rule="nonzero" filter="url(#filter-8)" transform="translate(30.072654, 32.297578) rotate(-59.000000) translate(-30.072654, -32.297578) "></path>
            </g>
            <g id="Message" transform="translate(0.000000, -1.000000)">
                <path d="M30.0478412,24.3774257 L6.17851629,21.0032933 C5.19408511,20.8641355 4.46133652,20.022984 4.45845869,19.0287701 L4.42800009,8.50614106 C4.42737605,8.29055205 4.47323203,8.07736174 4.56244362,7.88109584 C4.90524862,7.12692329 5.79452463,6.79344401 6.54869717,7.13624901 L41.692528,23.1106848 C42.0226907,23.2607585 42.2873012,23.525369 42.4373748,23.8555317 C42.7801798,24.6097042 42.4467005,25.4989802 41.692528,25.8417852 L6.54263631,41.818976 C6.34996944,41.9065516 6.14095137,41.9523657 5.9293174,41.9534076 C5.10090032,41.9574859 4.42602945,41.2892273 4.42195112,40.4608102 L4.37162809,30.2388469 C4.36677821,29.2537055 5.08003983,28.4117532 6.05257924,28.2546091 L30.0478412,24.3774257 Z" id="Shape-Copy" stroke="#30CFAA" stroke-width="2" transform="translate(23.471898, 24.477429) rotate(-109.000000) translate(-23.471898, -24.477429) "></path>
                <path d="M47,86 L56,101 C58.6666667,95.6666667 60,93 60,93 C60,93 67.6666667,76 83,42 L47,86 Z" id="Path-3" fill="#FFFFFF"></path>
                <g id="Shape" transform="translate(70.775318, 62.273785) rotate(-59.000000) translate(-70.775318, -62.273785) translate(37.275318, 31.273785)" fill="#30CFAA">
                    <path d="M1.4865184,60.9850717 L66.686392,31.3488261 C66.937783,31.2345577 67.048943,30.9381324 66.934675,30.6867415 C66.88465,30.5766873 66.796447,30.4884838 66.686392,30.4384593 L1.4865184,0.8022136 C1.2351275,0.6879452 0.9387022,0.799105 0.8244339,1.0504959 C0.7948986,1.1154736 0.7796173,1.1860217 0.7796173,1.257397 L0.7796173,23.9273599 C0.7796173,24.4369255 1.1627769,24.864998 1.6692283,24.9212484 L53.2067092,30.6454025 C53.3439365,30.6606441 53.4428256,30.7842445 53.427584,30.9214719 C53.4146778,31.0376732 53.3229588,31.1294111 53.2067601,31.1423411 L1.6690244,36.8772229 C1.1626625,36.9335686 0.7796173,37.3616015 0.7796173,37.8710887 L0.7796173,60.5298883 C0.7796173,60.8060307 1.0034749,61.0298883 1.2796173,61.0298883 C1.3509926,61.0298883 1.4215407,61.014607 1.4865184,60.9850717 Z" id="path-2"></path>
                </g>
            </g>
        </g>
    </g>
</svg>