<?xml version="1.0" encoding="UTF-8"?>
<svg width="173px" height="134px" viewBox="0 0 173 134" version="1.1" xmlns="http://www.w3.org/2000/svg" xmlns:xlink="http://www.w3.org/1999/xlink">
    <!-- Generator: Sketch 52.2 (67145) - http://www.bohemiancoding.com/sketch -->
    <title>desktop/bg/Pattern/Сreate and join communities</title>
    <desc>Created with Sketch.</desc>
    <defs>
        <path d="M4.86960102,8.26307342 C4.34125504,7.41688639 3.98040434,6.39633013 3.98040434,5.29765972 C3.98040434,5.08336312 3.99007303,4.87203836 4.00886766,4.66439972 C4.14697681,2.05946113 5.88108324,0 8,0 L8.00599589,0 C8.09475237,0 8.18283796,0.00378007588 8.27016477,0.0112245673 C10.1730245,0.169858786 11.7116942,1.99186743 11.9637803,4.32425872 C12.0083092,4.63979185 12.0315874,4.9651483 12.0315874,5.29765972 C12.0315874,6.52990511 11.5776593,7.66388767 10.9426039,8.56380327 C10.9171495,8.60186174 10.891311,8.63947792 10.8650968,8.67663647 L10.8650968,10.2028752 C12.1975631,10.6375477 13.9198474,11.3737713 14.7944619,12.3214907 C15.4430022,13.0242393 15.8437772,14.8161716 15.9967868,16.7969311 C15.9989282,16.8246524 16,16.8524416 16,16.8802405 C16,17.4962059 15.4850485,17.9955444 14.8498236,17.9955444 L1.1502106,17.9955373 C1.12546312,17.9955373 1.10072208,17.9947628 1.07602613,17.993215 C0.442127113,17.9534863 -0.0385360596,17.4229834 0.00243647222,16.8083038 C0.13207041,14.8634294 0.5059316,13.0938053 1.12402004,12.3997877 C2.00503227,11.4105473 3.75704846,10.6457117 5.14162997,10.2028752 L5.14162997,8.68614989 C5.04583336,8.55097556 4.95502017,8.4097022 4.86960102,8.26307342 Z M9.86509676,9.72370751 C9.30821565,10.1410125 8.67354923,10.3848877 8,10.3848877 C7.32916125,10.3848877 6.69689299,10.1429713 6.14162997,9.728737 L6.14162997,10.9329429 L5.44626244,11.1553452 C3.87091573,11.6591949 2.49250449,12.366781 1.87079647,13.0648628 C1.48759145,13.4951427 1.12589009,14.9894418 1.00022229,16.874813 C0.996549457,16.9299136 1.05068711,16.9896649 1.13857702,16.9951732 C1.14244959,16.9953754 5.71286513,16.9954991 14.8498236,16.9955444 C14.9395363,16.9955444 15,16.9369139 15,16.8802405 C14.8510289,14.9486143 14.4648484,13.4388286 14.0595799,12.9996856 C13.4473852,12.3363206 12.1104737,11.6610014 10.5549648,11.1535688 L9.86509676,10.9285224 L9.86509676,9.72370751 Z M15,8.18236293 C15,5.87250767 16.2424361,4 17.7750586,4 C19.3076811,4 20.5501172,5.87250767 20.5501172,8.18236293 C20.5501172,8.94248596 20.3590757,9.65524753 20.0667017,10.2695033 L20.0667017,11.8571337 C21.0927733,12.1995852 22.4190259,12.77961 23.0925267,13.5262591 C23.5619678,14.0466858 23.8628283,15.3706042 23.9951084,16.7806757 C23.9983677,16.8154189 24,16.8502963 24,16.885193 C24,17.5011513 23.5023452,18.0004842 22.8884568,18.0004842 L17.1255493,18.0004842 C17.5274658,17.7402344 17.4471361,16.9778097 17.4471361,16.885189 C17.4471361,16.85739 17.2670288,12.8876953 15.6593207,11.3726196 L15.6593207,10.6066664 C15.2700218,9.92280139 15,9.08605297 15,8.18236293 Z M8,9.3848877 C9.52094004,9.3848877 11,7.33945226 11,5 C11,2.747951 9.6016392,1 8,1 C6.3983608,1 5,2.747951 5,5 C5,7.33945226 6.47905996,9.3848877 8,9.3848877 Z" id="path-1"></path>
        <path d="M12.8367352,1.83168847 C14.0958977,2.33680531 15.3333333,3.76951897 15.3333333,5.2247511 C15.3333333,5.49050308 15.3333333,6.26158756 15.3333333,7.53800456 C15.3333333,9.45263005 13.7733855,11.9840109 11.873921,12.1152344 L11.873921,13.2789383 C11.873921,13.5000376 11.7251663,13.6666667 11.5279798,13.6666667 C11.4343285,13.6666667 11.342407,13.6263092 11.2692651,13.5530221 L10.8934247,13.1764354 C9.93220226,12.2133042 8.63220452,11.8164699 7.23311933,11.8164699 L6.8059082,11.8164699 C7.49544271,11.2351888 8.5587961,11.1157227 9.43986003,11.1157227 L9.7964266,11.1157227 C11.6115316,11.1157227 13.5171419,9.18619792 13.5171419,7.42707798 L13.5171419,4.6181518 C13.5171419,4.09901816 13.5305151,3.59685314 13.4141608,3.09660945 C13.2853144,2.54265811 13.104146,2.14942744 12.8367352,1.83168847 Z M9.04829932,0.333333333 C11.043483,0.333333333 12.6666667,1.95974019 12.6666667,3.95913112 L12.6666667,6.74301552 C12.6666667,8.75614797 11.043483,10.3940879 9.04805442,10.3943333 L8.69466667,10.3943333 C7.30805442,10.3943333 6.01964626,10.9199463 5.0669932,11.8744911 L4.6945034,12.2477206 C4.62201361,12.3203543 4.53091156,12.3603519 4.43809524,12.3603519 C4.24266667,12.3603519 4.0952381,12.1952083 4.0952381,11.9760802 L4.0952381,10.3857448 C2.21270748,10.2556912 0.666666667,8.64057198 0.666666667,6.74301552 L0.666666667,3.95913112 C0.666666667,1.95974019 2.28985034,0.333333333 4.28503401,0.333333333 L9.04829932,0.333333333 Z M8.69466667,9.7276666 L9.04797244,9.72766661 C10.6738806,9.72746667 12,8.38933995 12,6.74301552 L12,3.95913112 C12,2.32766534 10.6750277,1 9.04829932,1 L4.28503401,1 C2.65830562,1 1.33333333,2.32766534 1.33333333,3.95913112 L1.33333333,6.74301552 C1.33333333,8.27873988 2.59662449,9.61395821 4.1411849,9.72066337 L4.76190476,9.76354548 L4.76190476,11.2430851 C5.82179328,10.2639969 7.21144417,9.7276666 8.69466667,9.7276666 Z M9.44273692,3.00301403 C9.74956178,3.00301403 9.99829247,3.30182822 9.99829247,3.6704342 C9.99829247,4.03904018 9.74956178,4.33785437 9.44273692,4.33785437 L3.88718136,4.33785437 C3.5803565,4.33785437 3.33162581,4.03904018 3.33162581,3.6704342 C3.33162581,3.30182822 3.5803565,3.00301403 3.88718136,3.00301403 L9.44273692,3.00301403 Z M7.41495914,6.34011489 C7.73712525,6.34011489 7.99829247,6.63892908 7.99829247,7.00753506 C7.99829247,7.37614105 7.73712525,7.67495524 7.41495914,7.67495524 L3.91495914,7.67495524 C3.59279304,7.67495524 3.33162581,7.37614105 3.33162581,7.00753506 C3.33162581,6.63892908 3.59279304,6.34011489 3.91495914,6.34011489 L7.41495914,6.34011489 Z" id="path-3"></path>
        <path d="M18.5714286,11.4285714 L11.4285714,11.4285714 L11.4285714,18.5714286 C11.4285714,19.3604068 10.7889782,20 10,20 L10,20 C9.21102179,20 8.57142857,19.3604068 8.57142857,18.5714286 L8.57142857,11.4285714 L1.42857143,11.4285714 C0.639593215,11.4285714 9.66219644e-17,10.7889782 0,10 L0,10 C-9.66219644e-17,9.21102179 0.639593215,8.57142857 1.42857143,8.57142857 L8.57142857,8.57142857 L8.57142857,1.42857143 C8.57142857,0.639593215 9.21102179,1.44932947e-16 10,0 L10,0 C10.7889782,-1.44932947e-16 11.4285714,0.639593215 11.4285714,1.42857143 L11.4285714,8.57142857 L18.5714286,8.57142857 C19.3604068,8.57142857 20,9.21102179 20,10 L20,10 C20,10.7889782 19.3604068,11.4285714 18.5714286,11.4285714 Z" id="path-5"></path>
        <path d="M11.3881803,0.583333333 L25.6118197,0.583333333 C31.5696599,0.583333333 36.4166667,5.43034014 36.4166667,11.3889116 L36.4166667,19.6854252 C36.4166667,25.3405102 31.800017,30.1538776 26.1785714,30.5414626 L26.1785714,35.2809694 C26.1785714,35.9340136 25.7383333,36.4261735 25.1547619,36.4261735 C24.877602,36.4261735 24.6055612,36.3069728 24.3890986,36.0905102 L23.2768027,34.9782143 C20.4320748,32.1334864 16.5847449,30.5670578 12.4441667,30.5670578 L11.3889116,30.5670578 C5.43034014,30.5663265 0.583333333,25.684949 0.583333333,19.6854252 L0.583333333,11.3889116 C0.583333333,5.43034014 5.43034014,0.583333333 11.3881803,0.583333333 Z M24.3869048,28.8690735 L26.0553329,28.7540394 C30.771953,28.4288399 34.625,24.3644851 34.625,19.6854252 L34.625,11.3889116 C34.625,6.41994481 30.5802442,2.375 25.6118197,2.375 L11.3881803,2.375 C6.41975583,2.375 2.375,6.41994481 2.375,11.3889116 L2.375,19.6854252 C2.375,24.6983724 6.42285263,28.7747817 11.3889116,28.7753912 L12.4441667,28.7753912 C16.9810361,28.7753912 21.2197372,30.4712036 24.3869048,33.5565548 L24.3869048,28.8690735 Z M8.75,9.54166667 L28.25,9.54166667 C28.8022847,9.54166667 29.25,9.98938192 29.25,10.5416667 L29.25,12.125 C29.25,12.6772847 28.8022847,13.125 28.25,13.125 L8.75,13.125 C8.19771525,13.125 7.75,12.6772847 7.75,12.125 L7.75,10.5416667 C7.75,9.98938192 8.19771525,9.54166667 8.75,9.54166667 Z M8.75,18.5043878 L21.0833333,18.5043878 C21.6356181,18.5043878 22.0833333,18.952103 22.0833333,19.5043878 L22.0833333,21.0877211 C22.0833333,21.6400058 21.6356181,22.0877211 21.0833333,22.0877211 L8.75,22.0877211 C8.19771525,22.0877211 7.75,21.6400058 7.75,21.0877211 L7.75,19.5043878 C7.75,18.952103 8.19771525,18.5043878 8.75,18.5043878 Z" id="path-7"></path>
        <filter x="-75.0%" y="-75.0%" width="250.0%" height="250.0%" filterUnits="objectBoundingBox" id="filter-9">
            <feGaussianBlur stdDeviation="10" in="SourceGraphic"></feGaussianBlur>
        </filter>
        <path d="M43.2826531,11 L64.7173469,11 C73.6956735,11 81,18.3023892 81,27.2794361 L81,39.778773 C81,48.2985943 74.0428163,55.550303 65.5714286,56.1342297 L65.5714286,63.2746618 C65.5714286,64.2585232 64.908,65 64.0285714,65 C63.610898,65 63.2009388,64.820415 62.8747347,64.4942974 L61.1985306,62.8185379 C56.9115918,58.5327362 51.1137551,56.1727909 44.874,56.1727909 L43.2837551,56.1727909 C34.3043265,56.1716891 27,48.8175178 27,39.778773 L27,27.2794361 C27,18.3023892 34.3043265,11 43.2826531,11 Z M39.4795918,24.2275927 C38.9273071,24.2275927 38.4795918,24.6753079 38.4795918,25.2275927 L38.4795918,27.8182115 C38.4795918,28.3704962 38.9273071,28.8182115 39.4795918,28.8182115 L69.622449,28.8182115 C70.1747337,28.8182115 70.622449,28.3704962 70.622449,27.8182115 L70.622449,25.2275927 C70.622449,24.6753079 70.1747337,24.2275927 69.622449,24.2275927 L39.4795918,24.2275927 Z M39.4795918,37.9994491 C38.9273071,37.9994491 38.4795918,38.4471644 38.4795918,38.9994491 L38.4795918,41.5900679 C38.4795918,42.1423527 38.9273071,42.5900679 39.4795918,42.5900679 L60.4387755,42.5900679 C60.9910603,42.5900679 61.4387755,42.1423527 61.4387755,41.5900679 L61.4387755,38.9994491 C61.4387755,38.4471644 60.9910603,37.9994491 60.4387755,37.9994491 L39.4795918,37.9994491 Z" id="path-10"></path>
    </defs>
    <g id="desktop/bg/Pattern/Сreate-and-join-communities" stroke="none" stroke-width="1" fill="none" fill-rule="evenodd">
        <g id="Сreate-and-join-communities" transform="translate(0.000000, 1.000000)">
            <g id="ic_filled/clap" transform="translate(8.000000, 112.000000)">
                <mask id="mask-2" fill="white">
                    <use xlink:href="#path-1"></use>
                </mask>
                <path stroke="#979797" d="M5.29371747,7.99826172 L5.30163699,8.01138925 C5.37971734,8.14542039 5.46251062,8.27419369 5.54957371,8.39704453 L5.64162997,8.52694104 L5.64162997,10.5679091 L5.2939462,10.6791102 C3.64016487,11.208046 2.19358693,11.9506244 1.49740826,12.7323252 C1.01546619,13.2734716 0.63415637,14.8487792 0.50132938,16.8415584 C0.479006706,17.1764484 0.746406989,17.4715756 1.10730157,17.4941941 C1.12873924,17.4953133 1.12873924,17.4953133 1.15021086,17.4955373 L14.8498236,17.4955444 C15.2122924,17.4955444 15.5,17.2165599 15.5,16.8802405 C15.4997119,16.857823 15.4997119,16.857823 15.4982719,16.8354404 C15.3411753,14.8017732 14.9340126,13.2099569 14.4270209,12.6605881 C13.741426,11.9176877 12.3409209,11.2102452 10.7100308,10.678222 L10.3650968,10.5656988 L10.3650968,8.5180184 L10.4565335,8.38840735 C10.4920808,8.33756955 10.4920808,8.33756955 10.5340816,8.27551594 C11.1682673,7.37683286 11.5315874,6.34070461 11.5315874,5.29765972 C11.5315874,4.99179097 11.5104039,4.68974196 11.4666753,4.37798609 C11.2374328,2.25695217 9.86333741,0.645775814 8.2276945,0.509417578 C8.15415633,0.50314855 8.08023982,0.5 8.00599589,0.5 L8,0.5 C6.18275556,0.5 4.63391923,2.31899139 4.50683187,4.70947347 C4.48926668,4.90352964 4.48040434,5.0998213 4.48040434,5.29765972 C4.48040434,6.23301555 4.77192264,7.16256686 5.29371747,7.99826172 Z M10.3650968,10.5656988 L10.7100308,10.678222 C12.393652,11.227447 13.7621644,11.9401595 14.4270209,12.6605881 C14.9456873,13.2226073 15.3443188,14.8423561 15.5,16.8802405 C15.5,17.2408236 15.191525,17.4955444 14.8498211,17.4955444 C0.593681947,17.4954738 1.13156986,17.4954883 1.10730157,17.4941941 C0.767576398,17.4729023 0.477347475,17.2013406 0.501329295,16.8415597 C0.631416861,14.8898796 1.00392883,13.2864262 1.49740826,12.7323252 C2.17426832,11.9723162 3.5914542,11.2236254 5.2939462,10.6791102 L5.64162997,10.5679091 L5.64162997,8.73192332 L6.44060677,9.32797164 C6.93088023,9.69372279 7.46104402,9.8848877 8,9.8848877 C8.54111636,9.8848877 9.07338668,9.69217579 9.56526044,9.32358481 L10.3650968,8.72421872 L10.3650968,10.5656988 Z M16.1593207,11.1670469 C16.8685681,11.9300792 17.3414803,13.1192367 17.6456868,14.5850295 C17.8377766,15.5105973 17.9471361,16.5513063 17.9471361,16.885189 C17.9472948,16.8841009 17.9472948,16.8841009 17.9499259,16.940386 C17.9585958,17.1369149 17.9543538,17.3151811 17.9250857,17.5004842 L22.8884568,17.5004842 C23.2258253,17.5004842 23.5,17.225385 23.5,16.885193 C23.5,16.8658886 23.499097,16.8465949 23.4972941,16.8273761 C23.3617334,15.3823343 23.0608399,14.237625 22.7212549,13.8611579 C22.2097551,13.2941046 21.1465734,12.7446532 19.9084099,12.331416 L19.5667017,12.2173709 L19.5667017,10.2695033 L19.6152347,10.0546136 C19.8962175,9.46428998 20.0501172,8.82539978 20.0501172,8.18236293 C20.0501172,6.1158236 18.9779948,4.5 17.7750586,4.5 C16.5721224,4.5 15.5,6.1158236 15.5,8.18236293 C15.5,8.94047116 15.7143713,9.69269758 16.0938471,10.3593067 L16.1593207,10.4743214 L16.1593207,11.1670469 Z M8,9.8848877 C6.12910808,9.8848877 4.5,7.54607297 4.5,5 C4.5,2.53631607 6.05819923,0.5 8,0.5 C9.94180077,0.5 11.5,2.53631607 11.5,5 C11.5,7.54607297 9.87089192,9.8848877 8,9.8848877 Z"></path>
                <g id="Color/main/Blue" mask="url(#mask-2)" fill="#0768EF">
                    <g transform="translate(-13.000000, -14.000000)" id="Rectangle-8">
                        <polygon points="0 0 45 0 45 45 0 45"></polygon>
                    </g>
                </g>
            </g>
            <g id="ic_filled/clap-copy">
                <mask id="mask-4" fill="white">
                    <use xlink:href="#path-3"></use>
                </mask>
                <use id="Combined-Shape" fill="#072650" fill-rule="nonzero" xlink:href="#path-3"></use>
                <g id="Color/main/Blue" mask="url(#mask-4)" fill="#0768EF">
                    <g transform="translate(-7.000000, -21.000000)" id="Rectangle-8">
                        <polygon points="0 0 100 0 100 100 0 100"></polygon>
                    </g>
                </g>
            </g>
            <g id="ic_filled/clap-copy-3" transform="translate(151.000000, 15.000000)">
                <mask id="mask-6" fill="white">
                    <use xlink:href="#path-5"></use>
                </mask>
                <use id="Shape" fill="#FFFFFF" fill-rule="nonzero" xlink:href="#path-5"></use>
                <g id="Color/main/Blue" mask="url(#mask-6)" fill="#0768EF">
                    <g transform="translate(-52.000000, -36.000000)" id="Rectangle-8">
                        <polygon points="0 0 100 0 100 100 0 100"></polygon>
                    </g>
                </g>
            </g>
        </g>
        <g id="desktop/bg/icon/message" transform="translate(45.000000, 33.000000)">
            <g id="laptop" transform="translate(2.000000, 0.000000)">
                <g id="ic_outlined/comment" transform="translate(18.500000, 18.500000) scale(-1, 1) translate(-18.500000, -18.500000) ">
                    <mask id="mask-8" fill="white">
                        <use xlink:href="#path-7"></use>
                    </mask>
                    <use id="Combined-Shape" fill="#7F7F7F" fill-rule="nonzero" xlink:href="#path-7"></use>
                    <g id="Color/main/Blue" mask="url(#mask-8)" fill="#0768EF">
                        <g transform="translate(-40.000000, -28.000000)" id="Rectangle-8">
                            <polygon points="0 0 100 0 100 100 0 100"></polygon>
                        </g>
                    </g>
                </g>
                <path d="M46.2666667,26 L61.7333333,26 C68.5893878,26 74,31.4091772 74,38.2666667 L74,47.3333333 C74,53.6285883 68.8465306,59.0002244 62.8,59.6 L62.8,64.9333333 C62.5714286,65.450758 62.08,66 61.2,66 C61.1191837,66 60.8155102,65.8669741 60.6666667,65.4666667 L59.0666667,64.4 C56.1567347,61.2094342 51.8620408,59.4613266 47.3333333,59.6 L46.2666667,59.6 C39.4106122,59.4605105 34,54.0129761 34,47.3333333 L34,38.2666667 C34,31.4091772 39.4106122,26 46.2666667,26 Z M43.5714286,35.2857143 C43.0191438,35.2857143 42.5714286,35.7334295 42.5714286,36.2857143 L42.5714286,37.8571429 C42.5714286,38.4094276 43.0191438,38.8571429 43.5714286,38.8571429 L65.1428571,38.8571429 C65.6951419,38.8571429 66.1428571,38.4094276 66.1428571,37.8571429 L66.1428571,36.2857143 C66.1428571,35.7334295 65.6951419,35.2857143 65.1428571,35.2857143 L43.5714286,35.2857143 Z M43.5714286,46 C43.0191438,46 42.5714286,46.4477153 42.5714286,47 L42.5714286,48.5714286 C42.5714286,49.1237133 43.0191438,49.5714286 43.5714286,49.5714286 L58.7142857,49.5714286 C59.2665705,49.5714286 59.7142857,49.1237133 59.7142857,48.5714286 L59.7142857,47 C59.7142857,46.4477153 59.2665705,46 58.7142857,46 L43.5714286,46 Z" id="Combined-Shape" fill="#0768EF" fill-rule="nonzero" filter="url(#filter-9)"></path>
                <polygon id="Path-2" fill="#FFFFFF" points="35 22 35 47 73 47 73 22"></polygon>
                <mask id="mask-11" fill="white">
                    <use xlink:href="#path-10"></use>
                </mask>
                <use id="Combined-Shape" fill="#083D86" fill-rule="nonzero" xlink:href="#path-10"></use>
                <g id="Color/main/Blue" mask="url(#mask-11)" fill="#0768EF">
                    <g transform="translate(9.000000, -20.000000)" id="Rectangle-8">
                        <polygon points="0 0 100 0 100 100 0 100"></polygon>
                    </g>
                </g>
            </g>
        </g>
    </g>
</svg>